<?xml version="1.0" encoding="UTF-8"?>
<svg xmlns="http://www.w3.org/2000/svg" xmlns:xlink="http://www.w3.org/1999/xlink" width="23px" height="23px" viewBox="0 0 23 23" version="1.1">
<g id="surface1">
<path style=" stroke:none;fill-rule:nonzero;fill:#d3d1d8;fill-opacity:1;" d="M 17.867188 14.195312 L 8.652344 14.195312 C 8.339844 14.195312 8.066406 13.976562 7.996094 13.671875 L 6.445312 6.910156 C 6.398438 6.710938 6.445312 6.5 6.574219 6.339844 C 6.703125 6.179688 6.894531 6.085938 7.101562 6.085938 L 19.421875 6.085938 C 19.628906 6.085938 19.820312 6.179688 19.949219 6.339844 C 20.078125 6.5 20.125 6.710938 20.078125 6.910156 L 18.527344 13.671875 C 18.457031 13.976562 18.183594 14.195312 17.867188 14.195312 Z M 9.191406 12.847656 L 17.332031 12.847656 L 18.574219 7.433594 L 7.945312 7.433594 Z M 9.191406 12.847656 "/>
<path style=" stroke:none;fill-rule:nonzero;fill:#d3d1d8;fill-opacity:1;" d="M 9.972656 20.214844 C 8.546875 20.214844 7.390625 19.058594 7.390625 17.632812 C 7.390625 16.207031 8.546875 15.050781 9.972656 15.050781 C 11.398438 15.050781 12.554688 16.207031 12.554688 17.632812 C 12.554688 19.058594 11.398438 20.214844 9.972656 20.214844 Z M 9.972656 16.398438 C 9.289062 16.398438 8.738281 16.953125 8.738281 17.632812 C 8.738281 18.316406 9.292969 18.867188 9.972656 18.867188 C 10.65625 18.867188 11.207031 18.316406 11.207031 17.632812 C 11.207031 16.953125 10.652344 16.398438 9.972656 16.398438 Z M 9.972656 16.398438 "/>
<path style=" stroke:none;fill-rule:nonzero;fill:#d3d1d8;fill-opacity:1;" d="M 16.550781 20.214844 C 15.125 20.214844 13.96875 19.058594 13.96875 17.632812 C 13.96875 16.207031 15.125 15.050781 16.550781 15.050781 C 17.976562 15.050781 19.132812 16.207031 19.132812 17.632812 C 19.128906 19.058594 17.976562 20.214844 16.550781 20.214844 Z M 16.550781 16.398438 C 15.867188 16.398438 15.316406 16.953125 15.316406 17.632812 C 15.316406 18.316406 15.867188 18.867188 16.550781 18.867188 C 17.230469 18.867188 17.785156 18.316406 17.785156 17.632812 C 17.785156 16.953125 17.230469 16.398438 16.550781 16.398438 Z M 16.550781 16.398438 "/>
<path style=" stroke:none;fill-rule:nonzero;fill:#d3d1d8;fill-opacity:1;" d="M 7.101562 7.433594 C 6.8125 7.433594 6.554688 7.25 6.460938 6.972656 L 5.308594 3.503906 L 3.175781 3.503906 C 2.804688 3.503906 2.503906 3.203125 2.503906 2.828125 C 2.503906 2.457031 2.804688 2.15625 3.175781 2.15625 L 5.796875 2.15625 C 6.085938 2.15625 6.34375 2.34375 6.433594 2.617188 L 7.742188 6.546875 C 7.8125 6.753906 7.777344 6.980469 7.648438 7.15625 C 7.523438 7.328125 7.320312 7.433594 7.101562 7.433594 Z M 7.101562 7.433594 "/>
</g>
</svg>
