<?xml version="1.0" encoding="UTF-8"?>
<svg xmlns="http://www.w3.org/2000/svg" xmlns:xlink="http://www.w3.org/1999/xlink" width="16px" height="16px" viewBox="0 0 16 16" version="1.1">
<g id="surface1">
<path style=" stroke:none;fill-rule:nonzero;fill:#fff;fill-opacity:1;" d="M 11.761719 14.5 L 4.261719 14.5 C 3.414062 14.5 2.617188 14.109375 2.097656 13.441406 C 1.578125 12.773438 1.398438 11.90625 1.605469 11.085938 L 3.125 4.878906 C 3.179688 4.652344 3.390625 4.492188 3.625 4.5 L 12 4.5 C 12.226562 4.488281 12.433594 4.632812 12.5 4.851562 L 14.390625 10.929688 C 14.652344 11.769531 14.496094 12.679688 13.976562 13.386719 C 13.460938 14.09375 12.636719 14.507812 11.761719 14.5 Z M 4 5.5 L 2.554688 11.324219 C 2.425781 11.847656 2.539062 12.398438 2.871094 12.820312 C 3.199219 13.246094 3.703125 13.496094 4.238281 13.5 L 11.738281 13.5 C 12.292969 13.5 12.8125 13.238281 13.136719 12.789062 C 13.46875 12.339844 13.566406 11.757812 13.398438 11.226562 L 11.640625 5.5 Z M 4 5.5 "/>
<path style=" stroke:none;fill-rule:nonzero;fill:#fff;fill-opacity:1;" d="M 10 8.5 C 9.722656 8.5 9.5 8.277344 9.5 8 L 9.5 4 C 9.5 3.171875 8.828125 2.5 8 2.5 C 7.171875 2.5 6.5 3.171875 6.5 4 L 6.5 8 C 6.5 8.277344 6.277344 8.5 6 8.5 C 5.722656 8.5 5.5 8.277344 5.5 8 L 5.5 4 C 5.5 2.621094 6.621094 1.5 8 1.5 C 9.378906 1.5 10.5 2.621094 10.5 4 L 10.5 8 C 10.5 8.277344 10.277344 8.5 10 8.5 Z M 10 8.5 "/>
</g>
</svg>
