<?xml version="1.0" encoding="UTF-8"?>
<svg xmlns="http://www.w3.org/2000/svg" xmlns:xlink="http://www.w3.org/1999/xlink" width="26px" height="26px" viewBox="0 0 26 26" version="1.1">
<g id="surface1">
<path style="fill:none;stroke-width:6.0376;stroke-linecap:butt;stroke-linejoin:miter;stroke:#fff;stroke-opacity:1;stroke-miterlimit:10;" d="M 123.88412 130.603636 C 127.596559 130.603636 130.789258 129.304282 133.499339 126.482828 C 136.20942 123.809871 137.583023 120.617172 137.583023 116.904733 L 137.583023 48.595838 C 137.583023 44.883398 136.20942 41.6907 133.499339 39.017743 C 130.789258 36.307662 127.596559 34.896935 123.88412 34.896935 C 120.208804 34.896935 117.016106 36.307662 114.306025 39.017743 C 111.595944 41.6907 110.185216 44.883398 110.185216 48.595838 L 110.185216 116.904733 C 110.185216 120.617172 111.595944 123.809871 114.306025 126.482828 C 117.016106 129.192909 120.208804 130.603636 123.88412 130.603636 Z M 123.88412 130.603636 " transform="matrix(0.105221,0,0,0.105221,0,0)"/>
<path style="fill:none;stroke-width:6.0376;stroke-linecap:butt;stroke-linejoin:miter;stroke:#fff;stroke-opacity:1;stroke-miterlimit:10;" d="M 197.316181 93.887605 C 191.599023 82.416166 183.505904 72.800947 173.111073 65.116196 C 170.103996 62.814483 166.688552 61.886373 163.013236 62.406115 C 159.189423 62.888732 156.182347 64.707828 153.992007 67.714904 C 151.690294 70.684856 150.910682 74.1003 151.393299 77.81274 C 151.913041 81.488056 153.695012 84.495132 156.702088 86.796845 C 163.681475 92.105634 169.101638 98.491031 172.888326 106.101532 C 176.712139 113.712034 178.605484 121.805153 178.605484 130.418014 C 178.605484 137.805769 177.194757 144.896529 174.299053 151.616046 C 171.40335 158.298438 167.505288 164.089844 162.604868 169.101638 C 157.704447 174.002058 151.913041 177.90012 145.082151 180.795823 C 138.39976 183.691526 131.308999 185.102254 123.88412 185.102254 C 116.496364 185.102254 109.405604 183.691526 102.686088 180.795823 C 96.003696 177.90012 90.21229 174.002058 85.200496 169.101638 C 80.300075 164.201217 76.402013 158.409811 73.50631 151.616046 C 70.610607 144.896529 69.19988 137.805769 69.19988 130.418014 C 69.19988 121.805153 71.093224 113.712034 74.917037 106.101532 C 78.703726 98.491031 84.086764 91.994261 91.103275 86.796845 C 94.110352 84.495132 95.818074 81.488056 96.412064 77.81274 C 96.894681 74.1003 96.115069 70.684856 93.813356 67.714904 C 91.585892 64.596454 88.615941 62.888732 84.903501 62.406115 C 81.191061 61.886373 77.81274 62.814483 74.694291 65.116196 C 64.299459 72.91232 56.20634 82.490415 50.489183 93.887605 C 44.80915 105.396169 41.913447 117.610096 41.913447 130.492263 C 41.913447 141.592458 44.103786 152.210036 48.410216 162.307873 C 52.716647 172.405709 58.582302 181.092819 65.895808 188.517698 C 73.209315 195.794081 81.896424 201.69686 92.105634 206.00329 C 102.203471 210.309721 112.783924 212.50006 123.88412 212.50006 C 134.984315 212.50006 145.601893 210.309721 155.69973 206.00329 C 165.797566 201.69686 174.484675 195.794081 181.909555 188.517698 C 189.185938 181.204192 195.088717 172.517082 199.395147 162.307873 C 203.701578 152.210036 205.891917 141.592458 205.891917 130.492263 C 205.891917 117.610096 202.996214 105.396169 197.316181 93.887605 Z M 197.316181 93.887605 " transform="matrix(0.105221,0,0,0.105221,0,0)"/>
</g>
</svg>
