<?xml version="1.0" encoding="UTF-8"?>
<svg xmlns="http://www.w3.org/2000/svg" xmlns:xlink="http://www.w3.org/1999/xlink" width="14px" height="14px" viewBox="0 0 14 13" version="1.1">
<g id="surface1">
<path style=" stroke:none;fill-rule:nonzero;fill:#767f9d;fill-opacity:1;" d="M 5.441406 0 C 2.4375 0 0 2.261719 0 5.054688 C 0 7.84375 2.4375 10.105469 5.441406 10.105469 C 6.597656 10.105469 7.671875 9.773438 8.550781 9.203125 L 8.550781 9.199219 L 12.585938 12.949219 C 12.664062 13.019531 12.78125 13.019531 12.859375 12.949219 L 13.945312 11.9375 C 14.019531 11.871094 14.015625 11.753906 13.945312 11.6875 L 9.910156 7.941406 C 10.523438 7.121094 10.886719 6.125 10.886719 5.054688 C 10.886719 2.261719 8.449219 0 5.441406 0 Z M 5.441406 8.917969 C 3.144531 8.917969 1.28125 7.1875 1.28125 5.054688 C 1.28125 2.917969 3.144531 1.1875 5.441406 1.1875 C 7.742188 1.1875 9.605469 2.917969 9.605469 5.054688 C 9.605469 7.1875 7.742188 8.917969 5.441406 8.917969 Z M 5.441406 8.917969 "/>
</g>
</svg>
